<?xml version="1.0" encoding="iso-8859-1"?>
<!-- Uploaded to: SVG Repo, www.svgrepo.com, Generator: SVG Repo Mixer Tools -->
<svg height="800px" width="800px" version="1.1" id="Layer_1" xmlns="http://www.w3.org/2000/svg" xmlns:xlink="http://www.w3.org/1999/xlink" 
	 viewBox="0 0 511.855 511.855" xml:space="preserve">
<g transform="translate(0 -1)">
	<path style="fill:#FDD7AD;" d="M501.512,349.412c6.717-5.571,8.088-15.447,2.994-22.545c-10.865-15.134-19.881-18.736-57.665,1.128
		l-75.281,46.011c-22.997,12.227-83.352,8.678-109.403,8.678c0,0,61.457,4.157,36.942-32.438
		c-12.201-18.215-33.237-28.551-55.166-28.551h-33.844c-19.725,0-39.198-5.866-54.949-17.738
		c-36.76-27.726-107.485-25.409-107.485-25.409v208.271h121.492c17.33,0,34.634-1.302,51.773-3.914l113.109-17.2
		c3.862,0,7.611-0.451,11.238-1.258l0.182-0.026c9.147-1.293,17.512-5.918,24.194-12.314L501.512,349.412z"/>
	<path style="fill:#F9A671;" d="M288.19,391.361h-84.332c-4.799,0-8.678-3.879-8.678-8.678s3.879-8.678,8.678-8.678h84.332
		c4.799,0,8.678,3.879,8.678,8.678S292.989,391.361,288.19,391.361"/>
	<polygon style="fill:#4482C3;" points="4.267,512.855 47.656,512.855 47.656,252.273 4.267,252.273 	"/>
	<path style="fill:#F9A671;" d="M169.148,417.395c-4.799,0-8.678-3.879-8.678-8.678c0-21.738,16.219-34.712,43.39-34.712
		c4.799,0,8.678,3.879,8.678,8.678s-3.879,8.678-8.678,8.678c-26.034,0-26.034,13.06-26.034,17.356
		C177.826,413.516,173.947,417.395,169.148,417.395"/>
	<g>
		<path style="fill:#C03A2B;" d="M307.995,287.225c-62.204,0-112.814-50.61-112.814-112.814V78.954h-26.034
			c-3.393,0-6.465-1.979-7.88-5.051c-1.414-3.081-0.92-6.699,1.293-9.268L214.629,3.89c3.289-3.853,9.884-3.853,13.173,0
			l52.068,60.746c2.213,2.569,2.707,6.187,1.293,9.268c-1.414,3.072-4.487,5.051-7.88,5.051H247.25v95.458
			c0,33.488,27.257,60.746,60.746,60.746s60.746-27.257,60.746-60.746V78.954c0-4.799,3.879-8.678,8.678-8.678h34.712
			c4.799,0,8.678,3.879,8.678,8.678v95.458C420.809,236.615,370.199,287.225,307.995,287.225"/>
		<path style="fill:#C03A2B;" d="M412.131,44.242h-34.712c-4.799,0-8.678-3.879-8.678-8.678s3.879-8.678,8.678-8.678h34.712
			c4.799,0,8.678,3.879,8.678,8.678S416.93,44.242,412.131,44.242"/>
	</g>
</g>
</svg>